<svg fill="none" height="45" viewBox="0 0 72 45" width="72" xmlns="http://www.w3.org/2000/svg"><path d="m46.7154 4.77441h-21.4217v35.10539h21.4217z" fill="#ff5f00"/><path d="m27.5001 22.3313c-.0026-3.3804.7611-6.717 2.2334-9.7575 1.4723-3.04047 3.6147-5.70506 6.2649-7.79215-3.2824-2.58827-7.2244-4.197765-11.3753-4.644529-4.151-.446763-8.3435.287229-12.0983 2.118089-3.7549 1.83086-6.92065 4.68472-9.13546 8.23539-2.21481 3.5507-3.38934 7.655-3.38934 11.8438 0 4.1887 1.17453 8.293 3.38934 11.8437s5.38056 6.4045 9.13546 8.2354c3.7548 1.8309 7.9473 2.5648 12.0983 2.1181 4.1509-.4468 8.0929-2.0563 11.3753-4.6446-2.6511-2.0877-4.7939-4.7533-6.2662-7.7949-1.4724-3.0416-2.2357-6.3795-2.2321-9.7608z" fill="#eb001b"/><g fill="#f79e1b"><path d="m69.874 36.1653v-.7194h.309v-.1488h-.7355v.1488h.2905v.7194zm1.4277 0v-.8682h-.2225l-.2596.6201-.2596-.6201h-.2225v.8682h.1607v-.6573l.2411.5643h.1668l.2411-.5643v.6573z"/><path d="m72 22.3303c-.0001 4.189-1.1749 8.2936-3.3901 11.8444s-5.3814 6.4046-9.1367 8.2352c-3.7554 1.8306-7.9483 2.5641-12.0994 2.1167-4.1512-.4474-8.0932-2.0577-11.3754-4.6468 2.6492-2.0889 4.7909-4.7542 6.2636-7.7948 1.4727-3.0407 2.2379-6.3772 2.2379-9.7578 0-3.3807-.7652-6.7172-2.2379-9.7578-1.4727-3.04067-3.6144-5.70599-6.2636-7.79493 3.2822-2.58908 7.2242-4.199361 11.3754-4.646766 4.1511-.447405 8.344.286114 12.0994 2.116716 3.7553 1.8306 6.9215 4.6844 9.1367 8.23518 2.2152 3.5508 3.39 7.6554 3.3901 11.8445z"/></g></svg>