<svg fill="none" height="25" viewBox="0 0 216 70" width="77" xmlns="http://www.w3.org/2000/svg"><path d="M82.01 1.23 53.73 68.7H35.28L21.37 14.85c-.85-3.32-1.58-4.53-4.15-5.93C13.03 6.64 6.1 4.51 0 3.18l.42-1.96h29.7c3.78 0 7.19 2.52 8.05 6.88l7.35 39.05L63.68 1.23h18.33Zm72.29 45.44c.07-17.81-24.63-18.79-24.46-26.74.05-2.42 2.36-4.99 7.4-5.65 2.5-.33 9.39-.58 17.21 3.02l3.06-14.31c-4.2-1.53-9.6-2.99-16.33-2.99-17.25 0-29.39 9.17-29.5 22.31-.11 9.71 8.67 15.13 15.28 18.36 6.8 3.31 9.08 5.43 9.05 8.38-.04 4.53-5.42 6.52-10.44 6.6-8.78.14-13.87-2.37-17.93-4.26l-3.16 14.78c4.08 1.87 11.6 3.5 19.41 3.58 18.36 0 30.35-9.06 30.41-23.08Zm45.55 22.03h16.14L201.9 1.23H187c-3.35 0-6.17 1.95-7.43 4.95L153.39 68.7h18.33l3.64-10.08h22.39l2.1 10.08Zm-19.47-23.91 9.19-25.34 5.29 25.34h-14.48ZM106.95 1.23 92.52 68.7H75.07L89.51 1.23h17.44Z" fill="#1434CB"/></svg>
