<svg fill="none" height="25" viewBox="0 0 77 25" width="77" xmlns="http://www.w3.org/2000/svg"><path clip-rule="evenodd" d="m39.8225 8.02118c-.0439 3.46022 3.0869 5.39112 5.4452 6.53922 2.4232 1.1781 3.2371 1.9335 3.2279 2.9867-.0185 1.6124-1.9331 2.3237-3.7249 2.3514-3.1262.0485-4.9436-.8431-6.3887-1.5175l-1.1259 5.264c1.4497.6677 4.1341 1.2498 6.918 1.2752 6.5343 0 10.8093-3.2223 10.8326-8.2184.0254-6.3406-8.7794-6.6918-8.7193-9.526.0208-.85923.8416-1.77635 2.6405-2.00962.8901-.11769 3.348-.20788 6.1342 1.07404l1.0936-5.09308c-1.4982-.54519-3.4244-1.067306-5.822-1.067306-6.1503 0-10.4764 3.266156-10.5112 7.941346zm26.8422-7.502497c-1.1931 0-2.199.695387-2.6475 1.762497l-9.3343 22.26482h6.5296l1.2994-3.5873h7.9793l.7538 3.5873h5.755l-5.0221-24.027317zm.9132 6.490767 1.8844 9.02235h-5.1608zm-35.6722-6.490767-5.1469 24.027317h6.222l5.1446-24.027317zm-9.2048 0-6.4764 16.353817-2.6198-13.90536c-.3074-1.55211-1.5213-2.448457-2.8694-2.448457h-10.587268l-.148032.697687c2.17352.47116 4.64291 1.23116 6.13882 2.04423.91553.49654 1.17695.93077 1.47744 2.11116l4.96184 19.17424h6.576l10.0811-24.027317z" fill="#fff" fill-rule="evenodd"/></svg>