<svg fill="none" height="28" viewBox="0 0 28 28" width="28" xmlns="http://www.w3.org/2000/svg"><path d="m14 23.9102c5.4492 0 9.9609-4.5215 9.9609-9.961 0-5.4492-4.5214-9.96092-9.9707-9.96092-5.43942 0-9.95114 4.51172-9.95114 9.96092 0 5.4395 4.52149 9.961 9.96094 9.961zm0-1.6602c-4.60938 0-8.29102-3.6914-8.29102-8.3008 0-4.60936 3.67188-8.30076 8.28122-8.30076 4.6094 0 8.3008 3.6914 8.3106 8.30076.0097 4.6094-3.6914 8.3008-8.3008 8.3008zm-.0098-6.543c.459 0 .7325-.2636.7422-.7715l.1465-5.1562c.0098-.49805-.3809-.86914-.8984-.86914-.5274 0-.8985.36132-.8887.85937l.127 5.16597c.0097.4981.2832.7715.7714.7715zm0 3.1739c.5567 0 1.045-.4493 1.045-1.0157s-.4786-1.0156-1.045-1.0156c-.5761 0-1.0547.459-1.0547 1.0156 0 .5567.4883 1.0157 1.0547 1.0157z" fill="#fff"/></svg>