<svg fill="none" height="30" viewBox="0 0 28 30" width="28" xmlns="http://www.w3.org/2000/svg"><path d="m24.25 15c0 5.6609-4.5891 10.25-10.25 10.25-5.66092 0-10.25-4.5891-10.25-10.25 0-5.66092 4.58908-10.25 10.25-10.25 5.6609 0 10.25 4.58908 10.25 10.25z" fill="none" stroke="#fff" stroke-width="1.5"/><path d="m12.7695 19.9434c.252 0 .4512-.1114.5918-.3282l5.5371-8.7187c.1055-.1699.1465-.2988.1465-.4336 0-.3223-.2109-.53321-.5332-.53321-.2344 0-.3633.07621-.5039.29881l-5.2617 8.3848-2.7305-3.5742c-.14646-.2051-.29294-.2871-.50388-.2871-.33399 0-.5625.2285-.5625.5507 0 .1348.05859.2871.16992.4278l3.04106 3.873c.1757.2285.3574.3399.6093.3399z" fill="#fff"/></svg>
